<svg xmlns="http://www.w3.org/2000/svg" width="316" height="316" fill="none" viewBox="0 0 316 316">
    <g filter="url(#a)" opacity=".8">
        <circle cx="158" cy="158" r="12.1" fill="#7B5DD4"/>
    </g>
    <circle cx="158" cy="158" r="12.1" fill="#7B5DD4" opacity=".8"/>
    <circle cx="158" cy="158" r="137.6" stroke="#7B5DD4" stroke-dasharray="2.7 2.7" stroke-linejoin="round"
            stroke-width="12.7" opacity=".3"/>
    <path stroke="#2F2651" stroke-width="2.5" d="M157.5 279.5v21.2m0-285.4v21.2"/>
    <path fill="#7B5DD4"
          d="M151 64.4V48h2.6l1 3.3v13H151Zm11.3 0L152.7 52l.9-4 9.6 12.4-.9 4Zm0 0-1-3.3V48h3.7v16.4h-2.7Zm-5.1 204.4c-1.3 0-2.5-.2-3.4-.6-1-.5-1.9-1.1-2.7-2l2.4-2.4c.5.6 1 1 1.7 1.4a5 5 0 0 0 2.3.5c.8 0 1.4-.1 1.8-.4.4-.3.6-.7.6-1.2 0-.4-.1-.8-.4-1-.3-.3-.6-.6-1.1-.8l-1.5-.5-1.6-.7c-.6-.2-1-.5-1.6-.9-.4-.4-.8-.8-1-1.4a4 4 0 0 1-.5-2c0-1 .3-2 .8-2.6.4-.8 1.1-1.3 2-1.7a8 8 0 0 1 6.1 0c1 .4 1.8 1 2.4 1.7l-2.4 2.3c-.5-.5-1-.9-1.5-1.1a3 3 0 0 0-1.7-.4c-.6 0-1.1.1-1.5.4-.4.2-.5.6-.5 1s0 .8.4 1l1 .7a33.6 33.6 0 0 0 3.2 1.2c.6.2 1 .6 1.5 1 .5.3.8.8 1.1 1.4.3.6.4 1.3.4 2.1 0 1.6-.5 2.8-1.6 3.7a7.3 7.3 0 0 1-4.7 1.3ZM53.5 166.3a8.6 8.6 0 0 1-8-5.2c-.4-1-.6-2.1-.6-3.3a8.5 8.5 0 0 1 2.4-6 8 8 0 0 1 2.8-1.8 9 9 0 0 1 3.4-.7 8.7 8.7 0 0 1 6.1 2.5 8.5 8.5 0 0 1 2.5 6 8.6 8.6 0 0 1-2.5 6 8.5 8.5 0 0 1-6 2.5Zm0-3.3c1 0 1.8-.3 2.5-.7a4 4 0 0 0 1.8-1.8 6 6 0 0 0 .6-2.7 6 6 0 0 0-.4-2.1 4.6 4.6 0 0 0-4.5-3 5 5 0 0 0-2.6.6c-.7.4-1.3 1-1.7 1.8-.4.7-.6 1.6-.6 2.7 0 .8.1 1.5.4 2a5 5 0 0 0 1 1.7c.4.5.9.8 1.5 1 .6.3 1.3.5 2 .5Zm206.8 4v-16.4h3.7V167h-3.7Zm2.8 0v-3.2h9v3.2h-9Zm0-6.9v-3h8.2v3h-8.2Zm0-6.4v-3.1h8.9v3.1h-8.9Z"/>
    <g filter="url(#b)">
        <path fill="#7B5DD4"
              d="M308 158a150 150 0 1 1-300 0 150 150 0 0 1 300 0Zm-296.5 0a146.5 146.5 0 1 0 293 0 146.5 146.5 0 0 0-293 0Z"/>
    </g>
    <path fill="#7B5DD4"
          d="M308 158a150 150 0 1 1-300 0 150 150 0 0 1 300 0ZM9.5 158a148.5 148.5 0 1 0 297 0 148.5 148.5 0 0 0-297 0Z"/>
    <path stroke="#2F2651" stroke-width="2.5" d="M15.7 158H37m241.5 0h21.3"/>
    <defs>
        <filter id="a" width="40.2" height="40.2" x="137.9" y="137.9" color-interpolation-filters="sRGB"
                filterUnits="userSpaceOnUse">
            <feFlood flood-opacity="0" result="BackgroundImageFix"/>
            <feBlend in="SourceGraphic" in2="BackgroundImageFix" result="shape"/>
            <feGaussianBlur result="effect1_foregroundBlur_2813_365" stdDeviation="4"/>
        </filter>
        <filter id="b" width="316" height="316" x="0" y="0" color-interpolation-filters="sRGB"
                filterUnits="userSpaceOnUse">
            <feFlood flood-opacity="0" result="BackgroundImageFix"/>
            <feBlend in="SourceGraphic" in2="BackgroundImageFix" result="shape"/>
            <feGaussianBlur result="effect1_foregroundBlur_2813_365" stdDeviation="4"/>
        </filter>
    </defs>
</svg>