<svg xmlns:xlink="http://www.w3.org/1999/xlink" xmlns="http://www.w3.org/2000/svg" fill="none" viewBox="0 0 53 37">
    <defs>
        <path id="b" fill="#7B5DD4"
              d="m48.9 13.9-.1-1-.4-2.2-.7-1.7-1-1.5a7.8 7.8 0 0 0-2.2-2 15.6 15.6 0 0 0-1.8-.7l-1.3-.4-1.6-.3h-2.5l-.5-.1h-1l-.6.1-1.7.3-.9.1-2 .4-1.7.5c-.3.2-.4.4-.4.7.1.4.4.6.8.5l1.8-.3h2.3l.2.1.9.1c.5.1 1 .4 1.4.6l.9.7c1 1 1 1.9.6 3a8.6 8.6 0 0 1-.7 1.5l-1.3 2.1-1 1.4-1.6 1.6a26 26 0 0 1-3.3 2.6l-1.1.6c-.2.2-.5.2-.7.3l-1 .6-1.2.5-2.7 1a13.3 13.3 0 0 1-3.5.4l-1.4-.2a4.7 4.7 0 0 1-2.2-1c-1.2-.7-1.5-2.3-1.2-3.4l.2-1c0-.2 0-.4-.2-.5-.2 0-.4-.2-.7 0l-.6.4c-.4.5-.9 1-1.2 1.6a3 3 0 0 0-.8 1.6l-.1.3-.3.3-.2-.3a.7.7 0 0 1 0-.3l.1-2.1c.2-1.2.6-2.3 1.1-3.3v-.2l.6-.9 1-1.7 2.4-2.9c.5-.7 1.2-1.2 1.8-1.9l.7-.6c.3-.3.2-.6 0-.8-.3-.2-.6-.2-1-.2-.7.2-1.4.5-2.1 1-.6.3-1.2.5-1.7 1l-1.7 1.3a33.5 33.5 0 0 0-2 1.8l-1.7 1.9a12 12 0 0 0-1.7 2.4l-1 2a14 14 0 0 0-.7 3.5 11.2 11.2 0 0 0 .4 4l.8 1.6.8 1.3a10.7 10.7 0 0 0 3.5 2.7l1.4.5 2.3.5c.5.1 1 .4 1.6.2h3l1.2-.1h.8c.6-.2 1.2-.4 1.8-.4.6 0 1.2-.3 1.7-.4l2.6-.8a22.4 22.4 0 0 0 1.6-.6l1.3-.6 1.5-.7 1-.5 1-.6 1.3-.8a43.2 43.2 0 0 0 4.5-3.8c.8-.8 1.5-1.6 2.1-2.5l1.4-1.8.9-1.5.4-.7.3-.3.1.3a9 9 0 0 1-.4 3.4c-.3.8-.5 1.5-.9 2.2a19.1 19.1 0 0 1-2 3.5 32.5 32.5 0 0 1-3.4 3.6c-.3.3-.3.4 0 .8.1.3.2.3.5.2l.9-.4h.2l.6-.5 1.4-.9c.2 0 .3-.2.4-.4.5-.3 1-.6 1.3-1l1.5-1.6.7-.9 1-1.2 1.4-2.6a11 11 0 0 0 1.3-3.6l.2-1 .2-2Zm-19.4-2.7 1 .3c.4 0 .6.4.6.7v1c0 .5-.3 1-.4 1.5l-.1.3c0 .2 0 .5.2.6.4.2.5.2.8 0l.7-.7 1-1.4.4-1.5a4 4 0 0 0 0-2 2.6 2.6 0 0 0-2-2 7.1 7.1 0 0 0-1.8-.2h-1A23.5 23.5 0 0 0 25 9.2a9.1 9.1 0 0 0-1.9 1.1l-1.5 1.2a5 5 0 0 0-1.8 3.2c0 1 .4 1.9 1.4 2.3l.2.3-.3.1c-.3 0-.7.2-1 0-.3 0-.5 0-.8-.2-.5-.2-.8-.6-.7-1.2 0-.6.1-1.2.5-1.7.2-.3 0-.7-.1-.9-.4-.2-.7-.2-1 .1a7.2 7.2 0 0 0-1.6 3c-.3 1.2-.3 2.3.3 3.3.3.4.6.8 1.1 1 .4.3.7.3 1 .4l2-.1h.6l2.1-.9a14.8 14.8 0 0 0 4.2-3.3 6 6 0 0 0 1.3-2c.3-.9.2-1.6-.3-2.3a1.7 1.7 0 0 0-.6-.6.4.4 0 0 1-.2-.3l.2-.2 1.4-.2Z"/>
    </defs>
    <g filter="url(#a)">
        <use xlink:href="#b"/>
    </g>
    <use xlink:href="#b"/>
    <defs>
        <filter id="a" width="52.2" height="36.1" x=".7" y="0" color-interpolation-filters="sRGB"
                filterUnits="userSpaceOnUse">
            <feFlood flood-opacity="0" result="BackgroundImageFix"/>
            <feBlend in="SourceGraphic" in2="BackgroundImageFix" result="shape"/>
            <feGaussianBlur result="effect1_foregroundBlur_3238_27" stdDeviation="2"/>
        </filter>
    </defs>
</svg>