<svg xmlns="http://www.w3.org/2000/svg" xmlns:xlink="http://www.w3.org/1999/xlink" fill="none" viewBox="0 0 53 37">
    <defs>
        <path
                id="b"
                fill="#7B5DD4"
                d="M48.88 13.87c-.04-.4-.05-.7-.1-.99-.1-.72-.17-1.45-.38-2.14-.17-.6-.39-1.2-.7-1.76-.28-.52-.55-1.03-.93-1.48a7.76 7.76 0 0 0-2.22-1.92 15.6 15.6 0 0 0-1.82-.82c-.42-.16-.87-.25-1.3-.34-.56-.12-1.11-.25-1.67-.31-.6-.07-1.2-.08-1.8-.1-.2-.02-.42.01-.63.02L36.78 4c-.34 0-.68 0-1.02.03-.17.01-.35.1-.53.11-.56.06-1.13.06-1.69.22-.3.1-.62.11-.93.17-.69.12-1.38.22-2.06.38-.55.13-1.08.34-1.6.52-.37.13-.5.36-.41.7.1.35.38.53.74.46.6-.1 1.19-.23 1.78-.28.68-.05 1.36-.02 2.04-.01.1 0 .18.04.27.06l.22.05c.3.04.6.06.9.12.51.1.96.33 1.4.6.3.2.6.36.86.63.99.97.98 1.9.62 3.06a8.56 8.56 0 0 1-.7 1.5c-.4.72-.82 1.43-1.27 2.13-.31.47-.68.9-1.05 1.33-.48.56-.97 1.11-1.5 1.61a26.07 26.07 0 0 1-3.36 2.6c-.36.24-.75.45-1.13.65-.2.12-.41.2-.62.31-.36.19-.72.39-1.1.56-.37.18-.77.3-1.14.5-.85.42-1.77.64-2.68.9a13.31 13.31 0 0 1-3.5.46c-.47 0-.93-.15-1.4-.18a4.67 4.67 0 0 1-2.2-.9c-1.18-.76-1.55-2.37-1.23-3.46.09-.32.16-.65.23-.98.05-.24-.07-.4-.26-.52-.2-.11-.4-.2-.61-.06-.22.15-.47.28-.65.48-.43.48-.88.96-1.24 1.5-.33.5-.64 1.03-.8 1.63-.04.12-.04.25-.1.36-.06.1-.17.15-.26.23-.06-.09-.14-.17-.18-.26a.65.65 0 0 1-.02-.28c.04-.71.06-1.43.14-2.14.14-1.17.58-2.26 1.07-3.33l.07-.13.54-.93c.33-.56.61-1.16 1-1.67.75-1 1.54-1.99 2.36-2.93.56-.66 1.2-1.24 1.82-1.85.23-.23.49-.44.7-.69.26-.3.22-.58-.07-.79-.27-.19-.52-.18-.84-.12-.8.17-1.53.5-2.21.9-.57.33-1.18.6-1.68 1.03-.53.47-1.14.83-1.67 1.28a33.5 33.5 0 0 0-1.95 1.8c-.61.62-1.18 1.28-1.76 1.92a12.02 12.02 0 0 0-1.7 2.4c-.38.7-.79 1.38-1.06 2.1-.4 1.09-.55 2.24-.67 3.4a11.18 11.18 0 0 0 .45 3.93c.27.55.35 1.18.74 1.68.31.4.53.88.85 1.27a10.72 10.72 0 0 0 3.46 2.72c.46.2.93.42 1.42.56.74.21 1.5.4 2.27.51.52.08 1.04.32 1.6.14h.09c.67.15 1.34.1 2.01.04.31-.04.62.06.95-.03.36-.1.75-.1 1.13-.13l.58-.04c.09 0 .19.03.27 0 .6-.16 1.2-.3 1.83-.36.58-.06 1.14-.24 1.7-.4.87-.25 1.73-.51 2.6-.78a22.4 22.4 0 0 0 1.55-.56c.44-.17.87-.4 1.3-.6l1.5-.69c.32-.15.63-.32.93-.49l1.01-.6c.48-.3.98-.55 1.42-.88a43.18 43.18 0 0 0 4.46-3.8c.75-.77 1.45-1.6 2.13-2.43.48-.59.9-1.23 1.32-1.85.32-.47.62-.96.9-1.44.16-.25.26-.53.42-.78.06-.1.2-.17.3-.26.05.09.14.17.15.26a8.94 8.94 0 0 1-.46 3.48c-.27.72-.5 1.46-.82 2.15a19.12 19.12 0 0 1-2.13 3.46 32.45 32.45 0 0 1-3.28 3.6c-.36.34-.38.47-.08.89.17.23.26.23.51.12.29-.12.6-.2.9-.32.09-.03.18-.07.26-.12.2-.12.39-.26.58-.39l1.4-.93c.15-.1.3-.24.44-.36.42-.34.87-.64 1.25-1.01.54-.52 1.03-1.08 1.52-1.64.25-.27.47-.56.7-.85.3-.4.65-.77.9-1.2.53-.86 1-1.76 1.5-2.66a11 11 0 0 0 1.28-3.6c.05-.33.16-.65.2-.98.08-.68.13-1.36.18-1.95Zm-19.4-2.64 1.02.25c.37.1.58.39.64.72.06.34.07.71 0 1.04-.11.5-.3.99-.47 1.48l-.08.24c-.05.25.05.54.21.63.35.2.54.2.8-.04.23-.21.48-.42.67-.67.34-.45.7-.9.96-1.39.24-.45.39-.96.5-1.46.18-.7.2-1.43 0-2.12a2.64 2.64 0 0 0-2.05-1.97 7.1 7.1 0 0 0-1.83-.18c-.3.01-.65.03-.96.09-.77.15-1.54.35-2.3.58-.53.16-1.05.39-1.55.63a9.1 9.1 0 0 0-1.94 1.16l-.06.04c-.48.37-1 .7-1.43 1.13a5.03 5.03 0 0 0-1.79 3.21c-.09 1.06.33 1.89 1.4 2.3.08.03.15.18.16.29.01.04-.15.14-.24.15-.35.04-.7.18-1.07.02-.24-.1-.52-.12-.75-.24-.5-.26-.8-.65-.71-1.26.07-.58.1-1.18.46-1.7.18-.25.1-.67-.1-.82-.33-.22-.65-.2-.9.1a7.2 7.2 0 0 0-1.72 3.01c-.28 1.13-.3 2.22.38 3.23.3.43.61.83 1.09 1.1.33.18.66.2 1.02.28.67.13 1.32-.05 1.98-.06.2 0 .4 0 .57-.07.72-.26 1.44-.5 2.13-.82a14.83 14.83 0 0 0 4.16-3.3 5.91 5.91 0 0 0 1.34-2.07c.25-.8.2-1.56-.29-2.27a1.7 1.7 0 0 0-.68-.6.36.36 0 0 1-.17-.28c0-.06.14-.16.23-.18.4-.07.82-.11 1.38-.18Z"
        />
    </defs>
    <g filter="url(#a)">
        <use xlink:href="#b" />
    </g>
    <use xlink:href="#b" />
    <defs>
        <filter
                id="a"
                width="52.23"
                height="36.1"
                x=".65"
                y="0"
                color-interpolation-filters="sRGB"
                filterUnits="userSpaceOnUse"
        >
            <feFlood flood-opacity="0" result="BackgroundImageFix" />
            <feBlend in="SourceGraphic" in2="BackgroundImageFix" result="shape" />
            <feGaussianBlur result="effect1_foregroundBlur_3238_27" stdDeviation="2" />
        </filter>
    </defs>
</svg>