<svg xmlns="http://www.w3.org/2000/svg" fill="#fff" viewBox="0 0 141 141" width="100" height="100">
    <path d="M101.94 2.7C92.2 7.77 91.76 8.02 91.13 9.3c-.5 1.01-.54 1.4-.22 2.33.5 1.67 7.17 14 7.8 14.44 1.44 1.07 3.86-.22 3.86-2.01 0-.48-1.06-2.8-2.32-5.13-1.26-2.33-2.2-4.28-2.08-4.34.16-.06 1.7.57 3.5 1.35a58.46 58.46 0 0 1 22.6 17.77 58.65 58.65 0 0 1 11.32 27.04c.19 1.3.54 2.64.79 3.02 1 1.54 3.55 1.13 4.24-.66.63-1.67-1.47-11.45-3.65-16.92a61.26 61.26 0 0 0-15.09-22.54 60.31 60.31 0 0 0-18.83-12.58L99.8 9.65c-.07-.06 1.57-.97 3.61-2.04A35.4 35.4 0 0 0 107.86 5c.85-.79.9-2.4.15-3.3-1.1-1.3-1.88-1.17-6.07 1Zm-52.41.82c-.76.16-1.9.54-2.52.82-1.32.6-40.34 39.24-41.95 41.54a9.68 9.68 0 0 0-1.57 6.88c.19 1.01.7 2.36 1.1 3.09.44.72 18.58 19.08 40.34 40.81 43.53 43.5 40.7 40.91 44.75 40.91 4.22 0 3.24.82 25.72-21.6 22.74-22.67 22.17-21.98 22.17-26.29a7.5 7.5 0 0 0-.81-3.84c-.7-1.38-7.83-8.67-40.54-41.35-31.85-31.82-40-39.8-41.13-40.3a9.84 9.84 0 0 0-5.56-.67Zm2.98 5.03c.29 0 18.34 17.8 40.1 39.53 29.52 29.56 39.62 39.8 39.8 40.56.7 2.49 1.26 1.86-20.34 23.43-21.6 21.64-20.94 21.07-23.43 20.35C87.2 132 8.96 53.8 8.58 52.36 7.9 49.87 7.33 50.5 28.93 28.9c20.4-20.41 21-20.94 22.64-20.47.25.06.66.12.94.12Z"/>
    <path d="M37.48 26.38c-.25.1-2.83 2.52-5.72 5.38-3.55 3.52-5.31 5.5-5.47 6.1-.35 1.67 1.35 3.33 2.95 2.92.95-.22 10.54-9.52 11.26-10.9.63-1.23.57-1.77-.47-2.8-.88-.89-1.54-1.08-2.55-.7Zm63.49 71.72a5.85 5.85 0 0 0-2.6 2.4 6.9 6.9 0 0 0 6 10.69c6.44-.03 9.27-8.02 4.37-12.33a6.8 6.8 0 0 0-7.77-.75Zm4.56 4.63c1.07 1.1.88 2.61-.47 3.3-1.17.63-2.8-.37-2.8-1.76 0-1.6 2.17-2.64 3.27-1.54ZM1.63 76.57C.22 77.29.03 78.2.53 81.6a62.9 62.9 0 0 0 12.9 29.62 80.47 80.47 0 0 0 11.47 11.2 69.58 69.58 0 0 0 14.88 8.3c.82.31 1.48.6 1.48.66 0 .03-1.77 1-3.93 2.17a46.86 46.86 0 0 0-4.4 2.54c-.67.66-.6 2.43.12 3.3 1.07 1.33 2.17.98 9.43-2.85 4.15-2.24 6.89-3.87 7.2-4.38 1.04-1.57.73-2.64-2.92-9.55-1.92-3.62-3.8-6.9-4.21-7.33a2.55 2.55 0 0 0-1.67-.76c-1.16 0-2.45 1.26-2.45 2.4 0 .72 2.26 5.37 4.18 8.58l.63 1.03-.76-.22c-1.88-.56-6.63-2.86-9.65-4.65A57.53 57.53 0 0 1 6.23 84.6a44.1 44.1 0 0 1-.82-4.37c0-1.64-.66-3.12-1.57-3.59-1.1-.56-1.2-.56-2.2-.06Z"/>
</svg>